<svg width="24" height="25" viewBox="0 0 24 25" fill="none" xmlns="http://www.w3.org/2000/svg">
<g clip-path="url(#clip0_41_1197)">
<path d="M8.5 10.75C10.8472 10.75 12.75 8.84721 12.75 6.5C12.75 4.15279 10.8472 2.25 8.5 2.25C6.15279 2.25 4.25 4.15279 4.25 6.5C4.25 8.84721 6.15279 10.75 8.5 10.75Z" stroke="white" stroke-width="1.5" stroke-miterlimit="5"/>
<path d="M10.4697 19.601C9.66276 19.868 8.76876 20 7.89521 20C5.26124 20 2.4266 18.8265 2.4266 16.25V15.4895C2.4266 15.224 2.584 15 2.76993 15H10.9738C11.2472 14.4485 11.5939 13.9445 12 13.5H2.76993C1.79414 13.5 1 14.3925 1 15.4895V16.25C1 17.8905 1.8065 19.316 3.27114 20.2635C4.50324 21.061 6.14525 21.5 7.89521 21.5C8.93662 21.5 10.0028 21.338 10.9762 21.005C10.7574 20.5645 10.5886 20.0935 10.4697 19.601Z" fill="white"/>
<path d="M22.5 16.3805C22.2382 15.4578 21.7498 14.6311 21.1012 13.9615L20.4915 14.1921C20.0754 14.3496 19.6104 14.3116 19.2254 14.0892C18.84 13.8667 18.575 13.4831 18.5032 13.0442L18.397 12.3947C17.9493 12.2816 17.482 12.2212 17 12.2212C16.5171 12.2212 16.0507 12.2876 15.6026 12.4002L15.4973 13.0437C15.4254 13.4827 15.1604 13.8662 14.775 14.0887C14.3896 14.3112 13.925 14.3491 13.5089 14.1917L12.8965 13.9605C12.2465 14.6302 11.7618 15.4578 11.5 16.3805L12.0062 16.7948C12.3504 17.0767 12.55 17.4978 12.55 17.9427C12.55 18.3876 12.3504 18.8092 12.0062 19.0907L11.5 19.5049C11.7618 20.4277 12.247 21.2553 12.8965 21.9249L13.5085 21.6933C13.9246 21.5359 14.3896 21.5738 14.7746 21.7963C15.1595 22.0188 15.425 22.4023 15.4968 22.8413L15.6021 23.4848C16.0507 23.5979 16.5171 23.6643 17 23.6643C17.4829 23.6643 17.9493 23.5979 18.3974 23.4853L18.5027 22.8417C18.5746 22.4028 18.8396 22.0192 19.225 21.7968C19.6104 21.5743 20.075 21.5363 20.4911 21.6938L21.103 21.9254C21.753 21.2557 22.2377 20.4282 22.4995 19.5054L21.9933 19.0912C21.6491 18.8092 21.4495 18.3881 21.4495 17.9432C21.4495 17.4983 21.6491 17.0767 21.9933 16.7952L22.5 16.3805Z" stroke="white" stroke-miterlimit="10" stroke-linejoin="round"/>
<circle cx="16.9502" cy="17.6926" r="2.25" stroke="white" stroke-width="0.75"/>
</g>
<defs>
<clipPath id="clip0_41_1197">
<rect width="24" height="24" fill="white" transform="translate(0 0.5)"/>
</clipPath>
</defs>
</svg>
