<svg width="22" height="22" viewBox="0 0 22 22" fill="none" xmlns="http://www.w3.org/2000/svg">
<path d="M16.2708 18.5625H5.72917C4.46371 18.5625 3.4375 17.5363 3.4375 16.2708V5.72917C3.4375 4.46371 4.46371 3.4375 5.72917 3.4375H16.2708C17.5363 3.4375 18.5625 4.46371 18.5625 5.72917V16.2708C18.5625 17.5363 17.5363 18.5625 16.2708 18.5625Z" stroke="#7F7B92" stroke-width="1.5" stroke-miterlimit="10"/>
<path d="M3.4375 7.10413H18.5625" stroke="#7F7B92" stroke-width="1.5" stroke-miterlimit="10"/>
<path d="M7.10433 11.9167C7.73716 11.9167 8.25016 11.4037 8.25016 10.7708C8.25016 10.138 7.73716 9.625 7.10433 9.625C6.4715 9.625 5.9585 10.138 5.9585 10.7708C5.9585 11.4037 6.4715 11.9167 7.10433 11.9167Z" fill="#7F7B92"/>
<path d="M10.9998 11.9167C11.6327 11.9167 12.1457 11.4037 12.1457 10.7708C12.1457 10.138 11.6327 9.625 10.9998 9.625C10.367 9.625 9.854 10.138 9.854 10.7708C9.854 11.4037 10.367 11.9167 10.9998 11.9167Z" fill="#7F7B92"/>
<path d="M7.10433 16.0417C7.73716 16.0417 8.25016 15.5287 8.25016 14.8958C8.25016 14.263 7.73716 13.75 7.10433 13.75C6.4715 13.75 5.9585 14.263 5.9585 14.8958C5.9585 15.5287 6.4715 16.0417 7.10433 16.0417Z" fill="#7F7B92"/>
<path d="M10.9998 16.0417C11.6327 16.0417 12.1457 15.5287 12.1457 14.8958C12.1457 14.263 11.6327 13.75 10.9998 13.75C10.367 13.75 9.854 14.263 9.854 14.8958C9.854 15.5287 10.367 16.0417 10.9998 16.0417Z" fill="#7F7B92"/>
<path d="M14.8958 11.9167C15.5287 11.9167 16.0417 11.4037 16.0417 10.7708C16.0417 10.138 15.5287 9.625 14.8958 9.625C14.263 9.625 13.75 10.138 13.75 10.7708C13.75 11.4037 14.263 11.9167 14.8958 11.9167Z" fill="#7F7B92"/>
</svg>
