<svg width="40" height="40" viewBox="0 0 40 40" fill="none" xmlns="http://www.w3.org/2000/svg">
<rect width="40" height="40" rx="8" fill="#D7D4EA"/>
<path d="M28.5 19.2917C28.5032 20.5016 28.2205 21.6951 27.675 22.775C27.0282 24.0691 26.0339 25.1576 24.8035 25.9185C23.5731 26.6795 22.1551 27.0828 20.7083 27.0834C19.4985 27.0865 18.3049 26.8038 17.225 26.2584L12 28L13.7417 22.775C13.1962 21.6951 12.9135 20.5016 12.9167 19.2917C12.9172 17.845 13.3206 16.427 14.0815 15.1965C14.8424 13.9661 15.9309 12.9718 17.225 12.325C18.3049 11.7795 19.4985 11.4969 20.7083 11.5H21.1667C23.0773 11.6054 24.882 12.4119 26.235 13.765C27.5881 15.1181 28.3946 16.9227 28.5 18.8334V19.2917Z" stroke="#2E1E91" stroke-width="2" stroke-linecap="round" stroke-linejoin="round"/>
</svg>
