<svg width="45" height="44" viewBox="0 0 45 44" fill="none" xmlns="http://www.w3.org/2000/svg">
<rect x="0.5" width="44" height="44" rx="22" fill="white"/>
<path d="M20 25C20.5523 25 21 24.5523 21 24C21 23.4477 20.5523 23 20 23C19.4477 23 19 23.4477 19 24C19 24.5523 19.4477 25 20 25Z" fill="#2E1E91"/>
<path d="M25 25C25.5523 25 26 24.5523 26 24C26 23.4477 25.5523 23 25 23C24.4477 23 24 23.4477 24 24C24 24.5523 24.4477 25 25 25Z" fill="#2E1E91"/>
<path d="M28.25 11.75H16.75C16.1975 11.75 15.75 12.1975 15.75 12.75V20.25H29.25V12.75C29.25 12.1975 28.8025 11.75 28.25 11.75Z" stroke="#2E1E91" stroke-width="1.33" stroke-miterlimit="5" stroke-linecap="round" stroke-linejoin="round"/>
<path d="M22.25 18.5C21.836 18.5 21.5 18.164 21.5 17.75V14.75C21.5 14.336 21.836 14 22.25 14C22.664 14 23 14.336 23 14.75V17.75C23 18.164 22.664 18.5 22.25 18.5Z" fill="#2E1E91"/>
<path d="M24.5 16.25C24.5 16.664 24.164 17 23.75 17H20.75C20.336 17 20 16.664 20 16.25C20 15.836 20.336 15.5 20.75 15.5H23.75C24.164 15.5 24.5 15.836 24.5 16.25Z" fill="#2E1E91"/>
<path d="M29.25 20V22.4395C29.838 22.719 30.25 23.305 30.25 24C30.25 24.9665 29.4665 25.75 28.5 25.75C28.4895 25.75 28.48 25.747 28.4695 25.747C27.679 29.514 25.3055 32.25 22.5 32.25C19.6945 32.25 17.321 29.514 16.5305 25.747C16.52 25.747 16.5105 25.75 16.5 25.75C15.5335 25.75 14.75 24.9665 14.75 24C14.75 23.3035 15.1605 22.711 15.75 22.4315V20" stroke="#2E1E91" stroke-width="1.33" stroke-miterlimit="5" stroke-linecap="round" stroke-linejoin="round"/>
</svg>
