<svg width="44" height="44" viewBox="0 0 44 44" fill="none" xmlns="http://www.w3.org/2000/svg">
<rect width="44" height="44" rx="22" fill="#EFE8FF"/>
<path d="M27.6509 17.2075C29.1697 17.2075 30.4009 15.9763 30.4009 14.4575C30.4009 12.9387 29.1697 11.7075 27.6509 11.7075C26.1321 11.7075 24.9009 12.9387 24.9009 14.4575C24.9009 15.9763 26.1321 17.2075 27.6509 17.2075Z" stroke="#2E1E91" stroke-width="1.5" stroke-miterlimit="10"/>
<path d="M32.4009 20.825C32.4009 20.2075 31.9004 19.7075 31.2834 19.7075H24.0184C23.4009 19.7075 22.9009 20.208 22.9009 20.825C22.9009 20.825 22.9009 26.3625 22.9009 26.457C22.9009 29.0805 25.0274 31.207 27.6509 31.207C30.2744 31.207 32.4009 29.0805 32.4009 26.457C32.4009 26.3625 32.4009 20.825 32.4009 20.825Z" stroke="#2E1E91" stroke-width="1.5" stroke-miterlimit="10"/>
<path d="M13.75 16C14.4404 16 15 15.4404 15 14.75C15 14.0596 14.4404 13.5 13.75 13.5C13.0596 13.5 12.5 14.0596 12.5 14.75C12.5 15.4404 13.0596 16 13.75 16Z" fill="#2E1E91"/>
<path d="M18.75 16C19.4404 16 20 15.4404 20 14.75C20 14.0596 19.4404 13.5 18.75 13.5C18.0596 13.5 17.5 14.0596 17.5 14.75C17.5 15.4404 18.0596 16 18.75 16Z" fill="#2E1E91"/>
<path d="M27.75 24C28.4404 24 29 23.4404 29 22.75C29 22.0596 28.4404 21.5 27.75 21.5C27.0596 21.5 26.5 22.0596 26.5 22.75C26.5 23.4404 27.0596 24 27.75 24Z" fill="#2E1E91"/>
<path d="M13.7502 14.75H13.4197C11.6637 14.75 10.6342 16.727 11.6412 18.1655L16.2502 24.75L20.5702 18.104C21.5087 16.6595 20.4727 14.75 18.7502 14.75" stroke="#2E1E91" stroke-width="1.5" stroke-miterlimit="10" stroke-linecap="round" stroke-linejoin="round"/>
<path d="M16.25 25V25.5C16.25 28.6755 18.8245 31.25 22 31.25C25.1755 31.25 27.75 28.6755 27.75 25.5V23.25" stroke="#2E1E91" stroke-width="1.5" stroke-miterlimit="10" stroke-linecap="round" stroke-linejoin="round"/>
</svg>
