<svg width="24" height="25" viewBox="0 0 24 25" fill="none" xmlns="http://www.w3.org/2000/svg">
<path d="M8.5 10.75C10.8472 10.75 12.75 8.84721 12.75 6.5C12.75 4.15279 10.8472 2.25 8.5 2.25C6.15279 2.25 4.25 4.15279 4.25 6.5C4.25 8.84721 6.15279 10.75 8.5 10.75Z" stroke="white" stroke-width="1.5" stroke-miterlimit="5"/>
<path d="M11.207 19.601C10.3585 19.868 9.4185 20 8.5 20C5.7305 20 2.75 18.8265 2.75 16.25V15.4895C2.75 15.224 2.9155 15 3.111 15H11.737C12.0245 14.4485 12.389 13.9445 12.816 13.5H3.111C2.085 13.5 1.25 14.3925 1.25 15.4895V16.25C1.25 17.8905 2.098 19.316 3.638 20.2635C4.9335 21.061 6.66 21.5 8.5 21.5C9.595 21.5 10.716 21.338 11.7395 21.005C11.5095 20.5645 11.332 20.0935 11.207 19.601Z" fill="white"/>
<path d="M13.9838 14.9523C14.7852 13.8174 16.1044 13.0742 17.5995 13.0742C20.0445 13.0742 22.0264 15.0561 22.0264 17.501V18.0376" stroke="white" stroke-width="1.2" stroke-miterlimit="10" stroke-linecap="round"/>
<path d="M21.2153 20.0502C20.4139 21.1851 19.0948 21.9283 17.5996 21.9283C15.1546 21.9283 13.1727 19.9464 13.1727 17.5014V16.9648" stroke="white" stroke-width="1.2" stroke-miterlimit="10" stroke-linecap="round"/>
<path d="M14.5142 18.0354L13.3069 16.8281L12.0996 18.0354" stroke="white" stroke-width="1.2" stroke-miterlimit="10" stroke-linecap="round" stroke-linejoin="round"/>
<path d="M23.0996 16.9648L21.8923 18.1722L20.6849 16.9648" stroke="white" stroke-width="1.2" stroke-miterlimit="10" stroke-linecap="round" stroke-linejoin="round"/>
</svg>
