<svg width="66" height="32" viewBox="0 0 33 32" fill="none" xmlns="http://www.w3.org/2000/svg">
<path d="M12.4688 1.41895L13.0678 3.83413" stroke="#019283" stroke-width="2.4" stroke-linecap="round" stroke-linejoin="round"/>
<path d="M5.77539 5.41016L7.48792 7.16751" stroke="#019283" stroke-width="2.4" stroke-linecap="round" stroke-linejoin="round"/>
<path d="M1.89258 12.3154L4.23319 12.9266" stroke="#019283" stroke-width="2.4" stroke-linecap="round" stroke-linejoin="round"/>
<path d="M1.98633 19.8916L4.28469 19.1284" stroke="#019283" stroke-width="2.4" stroke-linecap="round" stroke-linejoin="round"/>
<path d="M5.81152 26.5371L7.48489 24.74" stroke="#019283" stroke-width="2.4" stroke-linecap="round" stroke-linejoin="round"/>
<path d="M12.3984 30.4365L12.9929 28.0201" stroke="#019283" stroke-width="2.4" stroke-linecap="round" stroke-linejoin="round"/>
<path fill-rule="evenodd" clip-rule="evenodd" d="M16.8301 30.352C16.8301 30.6281 17.0551 30.8528 17.3311 30.8444C25.7768 30.5879 32.6253 23.8813 32.6253 15.5419C32.6253 7.20256 25.7768 0.496015 17.3311 0.239485C17.0551 0.231101 16.8301 0.455746 16.8301 0.7319V2.73191C16.8301 3.00803 17.0548 3.23093 17.3307 3.24111C24.2106 3.49508 29.6253 8.95114 29.6253 15.5419C29.6253 22.1327 24.2106 27.5888 17.3307 27.8428C17.0548 27.853 16.8301 28.0758 16.8301 28.352V30.352Z" fill="#019283"/>
</svg>
