<svg width="18" height="18" viewBox="0 0 18 18" fill="none" xmlns="http://www.w3.org/2000/svg">
<path d="M13.125 16.502H4.5C3.87863 16.502 3.375 15.9983 3.375 15.377V7.50195C3.375 6.88058 3.87863 6.37695 4.5 6.37695H13.125C13.7464 6.37695 14.25 6.88058 14.25 7.50195V15.377C14.25 15.9983 13.7464 16.502 13.125 16.502Z" stroke="#2E1E91" stroke-width="1.33" stroke-miterlimit="10"/>
<path d="M12 6.375V4.3125C12 2.55225 10.5727 1.125 8.8125 1.125C7.05225 1.125 5.625 2.55225 5.625 4.3125V6.375" stroke="#2E1E91" stroke-width="1.33" stroke-miterlimit="10"/>
<circle cx="9" cy="11" r="1" fill="#2E1E91"/>
<path d="M9.5 12L9.5 11.5L8.5 11.5L8.5 12L9.5 12ZM8.5 14C8.5 14.2761 8.72386 14.5 9 14.5C9.27614 14.5 9.5 14.2761 9.5 14L8.5 14ZM8.5 12L8.5 14L9.5 14L9.5 12L8.5 12Z" fill="#2E1E91"/>
</svg>
