<svg width="44" height="44" viewBox="0 0 44 44" fill="none" xmlns="http://www.w3.org/2000/svg">
<rect width="44" height="44" rx="22" fill="#EFE8FF"/>
<path d="M22 12.7495C16.8915 12.7495 12.75 16.891 12.75 21.9995C12.75 23.6325 13.177 25.1645 13.92 26.4965L12.7695 30.6155C12.6645 30.9905 13.01 31.3365 13.3855 31.2315L17.5065 30.0815C18.8375 30.823 20.3685 31.2495 22 31.2495C27.1085 31.2495 31.25 27.108 31.25 21.9995C31.25 16.891 27.1085 12.7495 22 12.7495Z" stroke="#2E1E91" stroke-width="1.5" stroke-miterlimit="10" stroke-linejoin="round"/>
<path d="M16.75 26.25L19.25 19.75L21.75 26.25" stroke="#2E1E91" stroke-width="1.5" stroke-miterlimit="10" stroke-linecap="round" stroke-linejoin="round"/>
<path d="M17.75 24.25H20.75" stroke="#2E1E91" stroke-width="1.5" stroke-miterlimit="10" stroke-linecap="round" stroke-linejoin="round"/>
<path d="M25.75 17.25V23.75" stroke="#2E1E91" stroke-width="1.5" stroke-miterlimit="10" stroke-linecap="round" stroke-linejoin="round"/>
<path d="M27.25 19.75H25.75" stroke="#2E1E91" stroke-width="1.5" stroke-miterlimit="10" stroke-linecap="round" stroke-linejoin="round"/>
<path d="M20.25 17.25H23.25V18.5C23.25 19.354 22.861 20.117 22.25 20.6215" stroke="#2E1E91" stroke-width="1.5" stroke-miterlimit="10" stroke-linecap="round" stroke-linejoin="round"/>
</svg>
