<svg width="44" height="44" viewBox="0 0 44 44" fill="none" xmlns="http://www.w3.org/2000/svg">
<rect width="44" height="44" rx="22" fill="#EFE8FF"/>
<path d="M26.25 17.75C27.3546 17.75 28.25 16.8546 28.25 15.75C28.25 14.6454 27.3546 13.75 26.25 13.75C25.1454 13.75 24.25 14.6454 24.25 15.75C24.25 16.8546 25.1454 17.75 26.25 17.75Z" stroke="#2E1E91" stroke-width="1.5" stroke-miterlimit="10" stroke-linecap="round" stroke-linejoin="round"/>
<path d="M31.25 15.75H28.75" stroke="#2E1E91" stroke-width="1.5" stroke-miterlimit="10" stroke-linecap="round" stroke-linejoin="round"/>
<path d="M23.75 15.75H12.75" stroke="#2E1E91" stroke-width="1.5" stroke-miterlimit="10" stroke-linecap="round" stroke-linejoin="round"/>
<path d="M25.25 30.25C26.3546 30.25 27.25 29.3546 27.25 28.25C27.25 27.1454 26.3546 26.25 25.25 26.25C24.1454 26.25 23.25 27.1454 23.25 28.25C23.25 29.3546 24.1454 30.25 25.25 30.25Z" stroke="#2E1E91" stroke-width="1.5" stroke-miterlimit="10" stroke-linecap="round" stroke-linejoin="round"/>
<path d="M12.75 28.25H22.75" stroke="#2E1E91" stroke-width="1.5" stroke-miterlimit="10" stroke-linecap="round" stroke-linejoin="round"/>
<path d="M27.75 28.25H31.25" stroke="#2E1E91" stroke-width="1.5" stroke-miterlimit="10" stroke-linecap="round" stroke-linejoin="round"/>
<path d="M17.75 24C18.8546 24 19.75 23.1046 19.75 22C19.75 20.8954 18.8546 20 17.75 20C16.6454 20 15.75 20.8954 15.75 22C15.75 23.1046 16.6454 24 17.75 24Z" stroke="#2E1E91" stroke-width="1.5" stroke-miterlimit="10" stroke-linecap="round" stroke-linejoin="round"/>
<path d="M12.75 22H15.25" stroke="#2E1E91" stroke-width="1.5" stroke-miterlimit="10" stroke-linecap="round" stroke-linejoin="round"/>
<path d="M20.25 22H31.25" stroke="#2E1E91" stroke-width="1.5" stroke-miterlimit="10" stroke-linecap="round" stroke-linejoin="round"/>
</svg>
