<svg width="44" height="44" viewBox="0 0 44 44" fill="none" xmlns="http://www.w3.org/2000/svg">
<rect width="44" height="44" rx="22" fill="#EFE8FF"/>
<path d="M24.5 24.0685C24.5 21.4205 24.5 15.2015 24.5 14.75C24.5 13.3695 23.3805 12.25 22 12.25C20.6195 12.25 19.5 13.3695 19.5 14.75C19.5 15.721 19.5 21.013 19.5 24.0685C18.441 24.8415 17.75 26.0885 17.75 27.5C17.75 29.847 19.653 31.75 22 31.75C24.347 31.75 26.25 29.847 26.25 27.5C26.25 26.0885 25.559 24.8415 24.5 24.0685Z" stroke="#2E1E91" stroke-width="1.5" stroke-miterlimit="10" stroke-linejoin="round"/>
<path d="M22 30C23.3807 30 24.5 28.8807 24.5 27.5C24.5 26.1193 23.3807 25 22 25C20.6193 25 19.5 26.1193 19.5 27.5C19.5 28.8807 20.6193 30 22 30Z" fill="#2E1E91"/>
<path d="M22 26.75V18.75" stroke="#2E1E91" stroke-width="1.5" stroke-miterlimit="10" stroke-linecap="round"/>
</svg>
