<svg width="41" height="41" viewBox="0 0 41 41" fill="none" xmlns="http://www.w3.org/2000/svg">
<path d="M18 17.5835H23" stroke="#0FD197" stroke-width="3" stroke-miterlimit="10" stroke-linecap="round" stroke-linejoin="round"/>
<path d="M20.5 15.0835V20.0835" stroke="#0FD197" stroke-width="3" stroke-miterlimit="10" stroke-linecap="round" stroke-linejoin="round"/>
<path d="M15.0859 24.25H25.9193" stroke="#0FD197" stroke-width="3" stroke-miterlimit="10" stroke-linecap="round" stroke-linejoin="round"/>
<path d="M15.0859 28.4165H25.9193" stroke="#0FD197" stroke-width="3" stroke-miterlimit="10" stroke-linecap="round" stroke-linejoin="round"/>
<path d="M25.9141 7.5835H30.0807C31.4616 7.5835 32.5807 8.70266 32.5807 10.0835V32.5835C32.5807 33.9643 31.4616 35.0835 30.0807 35.0835H10.9141C9.53323 35.0835 8.41406 33.9643 8.41406 32.5835V10.0835C8.41406 8.70266 9.53323 7.5835 10.9141 7.5835H15.0807" stroke="#0FD197" stroke-width="3" stroke-miterlimit="10" stroke-linecap="round" stroke-linejoin="round"/>
<path d="M23.4193 4.25C22.7759 4.25 18.0434 4.25 17.5859 4.25C16.2051 4.25 15.0859 5.36917 15.0859 6.75C15.0859 8.13083 16.2051 9.25 17.5859 9.25C18.0434 9.25 22.7759 9.25 23.4193 9.25C24.8001 9.25 25.9193 8.13083 25.9193 6.75C25.9193 5.36917 24.8001 4.25 23.4193 4.25Z" stroke="#0FD197" stroke-width="3" stroke-miterlimit="10" stroke-linecap="round" stroke-linejoin="round"/>
</svg>
