<svg width="45" height="44" viewBox="0 0 45 44" fill="none" xmlns="http://www.w3.org/2000/svg">
<rect x="0.333008" width="44" height="44" rx="10" fill="#D7D4EA"/>
<path d="M25.3549 14.1621H28.2172C29.1658 14.1621 29.9346 14.8881 29.9346 15.7838V16.0541M17.9128 14.1621H15.0504C14.1018 14.1621 13.333 14.8881 13.333 15.7838C13.333 21.4835 13.333 24.6791 13.333 30.3789C13.333 31.2746 14.1018 32.0005 15.0504 32.0005H28.2172C29.1658 32.0005 29.9346 31.2746 29.9346 30.3789V28.2981" stroke="#2E1E91" stroke-width="2" stroke-miterlimit="10" stroke-linecap="round" stroke-linejoin="round"/>
<path d="M17.5605 19.5527H24.056M17.5605 23.0816H19.4057H20.8126" stroke="#2E1E91" stroke-width="1.6" stroke-linecap="round" stroke-linejoin="round"/>
<path d="M23.6368 12C23.1949 12 19.9438 12 19.6295 12C18.6809 12 17.9121 12.726 17.9121 13.6217C17.9121 14.5174 18.6809 15.2434 19.6295 15.2434C19.9438 15.2434 23.1949 15.2434 23.6368 15.2434C24.5854 15.2434 25.3542 14.5174 25.3542 13.6217C25.3542 12.726 24.5854 12 23.6368 12Z" stroke="#2E1E91" stroke-width="2" stroke-miterlimit="10" stroke-linecap="round" stroke-linejoin="round"/>
<path d="M24.8174 23.3855L27.3219 25.7504L33.3329 19.6016" stroke="#2E1E91" stroke-width="2" stroke-linecap="round" stroke-linejoin="round"/>
</svg>
