<?xml version="1.0" standalone="no"?>
<!DOCTYPE svg PUBLIC "-//W3C//DTD SVG 20010904//EN"
 "http://www.w3.org/TR/2001/REC-SVG-20010904/DTD/svg10.dtd">
<svg version="1.0" xmlns="http://www.w3.org/2000/svg"
 width="799.000000pt" height="799.000000pt" viewBox="0 0 799.000000 799.000000"
 preserveAspectRatio="xMidYMid meet">

<g transform="translate(0.000000,799.000000) scale(0.100000,-0.100000)"
fill="#008000" stroke="none">
<path d="M1010 7959 c-379 -49 -701 -278 -870 -618 -46 -92 -72 -168 -97 -281
-17 -81 -18 -217 -18 -3070 0 -2856 1 -2989 18 -3070 48 -221 141 -400 288
-555 98 -103 183 -165 314 -230 129 -64 246 -100 378 -114 135 -15 5819 -15
5954 0 132 14 249 50 378 114 130 64 216 127 312 228 168 178 275 407 302 650
15 135 15 5819 0 5954 -14 132 -50 249 -114 378 -154 311 -416 515 -775 601
-71 18 -216 18 -3040 20 -1631 1 -2994 -2 -3030 -7z m2780 -1322 c302 -68 476
-182 624 -409 66 -101 106 -190 137 -308 19 -71 23 -111 23 -245 1 -136 -3
-172 -22 -243 -57 -211 -172 -373 -357 -505 -100 -70 -239 -137 -288 -137 -30
0 -38 -3 -34 -14 8 -21 937 -1206 945 -1206 7 0 454 613 460 631 2 5 -41 9
-97 9 l-101 0 0 280 0 280 675 0 675 0 -2 -297 -3 -298 -191 -3 -191 -2 -294
-407 c-162 -224 -346 -480 -410 -568 l-116 -161 451 -584 451 -585 203 -3 202
-2 0 -300 0 -300 -825 0 -825 0 0 285 0 285 120 0 119 0 -271 355 c-215 281
-275 352 -284 342 -7 -6 -124 -165 -259 -352 l-246 -340 125 -3 126 -3 0 -284
0 -285 -705 0 -705 0 0 300 0 300 206 2 207 3 423 598 424 599 -430 561 c-236
309 -516 673 -620 810 l-191 247 -95 0 -94 0 0 -465 0 -465 165 0 165 0 0
-305 0 -305 -807 2 -808 3 -3 303 -2 302 185 0 185 0 0 1155 0 1155 -185 0
-185 0 0 300 0 301 1138 -4 c1019 -3 1145 -5 1212 -20z"/>
<path d="M2730 5654 l0 -406 248 5 c271 5 351 18 454 74 66 36 142 120 162
180 39 111 30 261 -22 356 -48 90 -127 144 -259 178 -66 16 -112 19 -330 19
l-253 0 0 -406z"/>
</g>
</svg>
