<?xml version="1.0" standalone="no"?>
<!DOCTYPE svg PUBLIC "-//W3C//DTD SVG 20010904//EN"
 "http://www.w3.org/TR/2001/REC-SVG-20010904/DTD/svg10.dtd">
<svg version="1.0" xmlns="http://www.w3.org/2000/svg"
 width="512.000000pt" height="512.000000pt" viewBox="0 0 512.000000 512.000000"
 preserveAspectRatio="xMidYMid meet">

<g transform="translate(0.000000,512.000000) scale(0.100000,-0.100000)"
fill="#008000" stroke="none">
<path d="M1497 4607 c-10 -7 -82 -76 -160 -155 -157 -159 -141 -151 -247 -106
-86 36 -258 46 -360 19 -346 -90 -545 -463 -434 -815 57 -182 203 -339 376
-401 l58 -22 0 -1303 0 -1303 24 -28 24 -28 1319 -5 c725 -3 1371 -3 1436 0
103 4 121 8 133 24 19 27 18 42 -6 66 -20 20 -33 20 -1410 20 l-1390 0 0 1270
0 1270 44 0 c24 0 51 3 60 6 15 6 16 -101 16 -1159 l0 -1165 29 -31 29 -31
862 0 c827 0 861 1 848 18 -7 10 -26 35 -43 55 l-30 37 -777 0 -778 0 0 1159
0 1158 66 39 c36 21 92 64 124 96 l59 59 1101 -1 1100 0 12 25 c8 19 8 31 0
50 l-12 25 -1069 0 -1069 0 27 84 c25 82 27 84 61 90 19 3 487 6 1041 6 768 0
1008 3 1017 12 17 17 15 53 -5 69 -13 12 -190 14 -1043 17 l-1027 3 -12 87
c-6 48 -14 99 -17 113 -6 26 -5 27 60 31 36 2 72 10 78 16 10 10 14 80 16 267
l3 255 1134 0 1135 0 0 -1022 c0 -563 3 -1033 6 -1045 6 -21 8 -21 46 -7 22 8
49 14 59 14 18 0 19 30 19 1056 l0 1056 -29 29 -29 29 -1215 0 c-669 0 -1221
2 -1229 4 -7 3 -21 -1 -31 -7z m9 -346 l5 -171 -54 0 c-52 0 -56 2 -81 38 -14
21 -40 51 -56 67 -17 16 -30 33 -30 38 0 10 203 207 208 202 2 -2 5 -80 8
-174z m-492 43 c177 -46 324 -185 387 -367 24 -69 29 -98 29 -182 0 -163 -46
-286 -148 -397 -116 -125 -238 -179 -403 -179 -163 -1 -285 55 -399 179 -101
110 -150 237 -150 390 0 46 7 112 16 146 51 199 216 365 407 412 73 17 188 17
261 -2z"/>
<path d="M800 3955 l0 -135 -135 0 -135 0 0 -80 0 -80 135 0 134 0 3 -137 3
-138 77 -3 77 -3 3 138 3 138 133 3 132 3 0 79 0 80 -135 0 -135 0 0 135 0
135 -80 0 -80 0 0 -135z"/>
<path d="M1374 3125 c-15 -23 -15 -27 0 -50 l16 -25 1084 0 c1036 0 1084 1
1099 18 20 22 22 53 5 70 -9 9 -267 12 -1100 12 l-1088 0 -16 -25z"/>
<path d="M1418 2873 c-42 -5 -60 -27 -52 -61 4 -11 13 -23 22 -27 9 -3 374 -6
811 -6 743 0 796 1 808 17 7 10 13 25 13 35 0 45 10 44 -799 45 -421 1 -783
-1 -803 -3z"/>
<path d="M1374 2596 c-3 -8 -4 -29 -2 -48 l3 -33 669 -3 c486 -1 673 1 682 9
17 14 18 61 2 77 -9 9 -174 12 -680 12 -565 0 -669 -2 -674 -14z"/>
<path d="M4008 2391 c-72 -15 -171 -72 -239 -140 -72 -73 -105 -134 -121 -223
-17 -99 1 -160 90 -304 l77 -124 53 0 c40 0 51 3 45 13 -103 166 -164 275
-169 303 -4 20 -4 59 -1 87 30 248 362 388 533 224 42 -40 274 -399 274 -424
0 -6 -74 -58 -165 -115 l-165 -103 42 -19 c61 -29 151 -117 185 -183 52 -98
66 -162 61 -284 -4 -101 -7 -111 -46 -190 -23 -46 -53 -98 -67 -115 l-25 -31
52 -23 c79 -35 203 -39 287 -10 174 58 302 199 321 353 8 68 -1 151 -21 189
-13 24 -339 549 -523 843 -59 94 -123 185 -144 202 -58 51 -149 83 -230 82
-37 -1 -84 -5 -104 -8z"/>
<path d="M1380 2345 c-13 -16 -16 -67 -5 -85 4 -7 197 -10 561 -10 l554 0 10
25 c6 16 5 35 -1 55 l-11 30 -548 0 c-480 0 -549 -2 -560 -15z"/>
<path d="M1372 1823 l3 -358 78 -3 77 -3 0 151 c0 167 -3 161 71 140 41 -12
60 -37 135 -176 26 -49 54 -97 61 -106 18 -21 18 -21 -111 -206 -56 -81 -106
-153 -110 -159 -5 -10 14 -13 86 -13 l93 0 79 130 c43 72 82 130 85 130 4 0
43 -58 86 -130 l80 -130 98 0 c53 0 97 2 97 3 0 2 -58 86 -130 187 -114 161
-128 185 -118 204 6 12 55 86 110 164 55 79 102 150 105 158 4 11 -11 14 -83
14 l-89 0 -74 -125 c-40 -69 -74 -125 -76 -125 -4 0 -145 228 -145 234 0 3 15
12 33 19 120 51 141 221 36 297 -54 38 -105 48 -307 55 l-172 6 2 -358z m352
208 c20 -19 26 -34 26 -66 0 -65 -36 -89 -147 -100 l-73 -7 0 102 0 102 84 -3
c73 -4 88 -7 110 -28z"/>
<path d="M2903 1535 c-223 -70 -329 -379 -212 -618 37 -78 106 -148 177 -180
47 -22 51 -22 687 -22 l640 0 48 24 c70 34 139 106 178 186 34 69 34 72 34
205 0 133 -1 136 -33 200 -37 74 -58 100 -122 151 -85 69 -83 69 -754 68 -469
-1 -610 -4 -643 -14z m557 -415 l0 -320 -244 0 c-277 0 -298 4 -380 80 -58 54
-88 124 -94 222 -8 138 51 255 157 310 l53 28 254 0 254 0 0 -320z"/>
</g>
</svg>
