<?xml version="1.0" standalone="no"?>
<!DOCTYPE svg PUBLIC "-//W3C//DTD SVG 20010904//EN"
 "http://www.w3.org/TR/2001/REC-SVG-20010904/DTD/svg10.dtd">
<svg version="1.0" xmlns="http://www.w3.org/2000/svg"
 width="577.000000pt" height="578.000000pt" viewBox="0 0 577.000000 578.000000"
 preserveAspectRatio="xMidYMid meet">

<g transform="translate(0.000000,578.000000) scale(0.100000,-0.100000)"
fill="#008000" stroke="none">
<path d="M2685 5764 c-347 -34 -628 -101 -900 -215 -701 -291 -1263 -853
-1554 -1554 -92 -220 -159 -467 -197 -730 -25 -169 -25 -581 0 -750 96 -658
369 -1208 821 -1660 452 -452 1002 -725 1660 -821 169 -25 581 -25 750 0 658
96 1208 369 1660 821 452 452 725 1002 821 1660 25 169 25 581 0 750 -75 512
-258 962 -546 1343 -374 496 -853 837 -1439 1026 -276 89 -505 126 -816 131
-121 1 -238 1 -260 -1z m1122 -1626 l373 -373 0 -1063 c0 -1039 0 -1064 -20
-1102 -11 -21 -34 -49 -52 -62 l-33 -23 -1129 -3 -1129 -2 -42 25 c-29 16 -50
39 -64 68 l-21 43 0 1360 c0 1304 1 1361 19 1400 19 43 63 80 109 94 15 5 385
9 822 9 l794 1 373 -372z"/>
<path d="M1842 4358 c-9 -9 -12 -324 -12 -1355 0 -1317 0 -1342 19 -1353 13
-7 371 -10 1090 -10 1058 0 1071 0 1091 20 20 20 20 33 20 1015 l0 995 -285 0
c-326 0 -340 3 -392 82 l-28 41 -3 289 -3 288 -743 0 c-564 0 -745 -3 -754
-12z m713 -249 c59 -15 131 -78 146 -128 6 -21 10 -72 8 -114 -4 -66 -8 -80
-35 -114 -37 -46 -92 -79 -147 -87 l-40 -7 98 -92 c54 -51 102 -92 106 -92 4
0 55 44 114 98 110 101 131 111 173 81 16 -11 22 -25 22 -51 0 -31 -10 -45
-102 -134 l-103 -98 103 -96 c88 -83 102 -101 102 -128 0 -40 -9 -53 -40 -65
-38 -14 -59 -1 -164 98 -52 51 -100 90 -105 88 -6 -1 -52 -42 -103 -89 -51
-47 -103 -91 -115 -97 -40 -22 -93 13 -93 61 0 25 18 47 105 131 l106 101
-152 140 c-108 100 -159 141 -179 143 l-28 3 -4 -114 c-2 -96 -6 -118 -22
-136 -24 -27 -70 -27 -96 -1 -19 19 -20 33 -20 345 0 312 1 326 20 345 19 19
33 20 211 20 107 0 210 -5 234 -11z m1147 -1306 c18 -16 24 -68 10 -89 -22
-33 -48 -34 -795 -34 -738 0 -745 0 -771 21 -32 25 -35 70 -6 99 20 20 33 20
782 20 694 0 763 -1 780 -17z m2 -339 c21 -20 20 -73 -1 -96 -15 -17 -53 -18
-780 -18 -750 0 -763 0 -783 20 -24 24 -26 67 -3 92 15 17 53 18 784 18 684 0
769 -2 783 -16z m-6 -330 c29 -20 30 -76 2 -104 -20 -20 -33 -20 -774 -20
-747 0 -754 0 -780 21 -32 25 -35 70 -6 99 20 20 33 20 778 20 669 0 760 -2
780 -16z"/>
<path d="M2230 3890 l0 -90 140 0 c161 0 194 10 205 60 4 16 4 43 0 60 -12 53
-33 60 -197 60 l-148 0 0 -90z"/>
<path d="M3480 4054 c0 -176 3 -224 14 -233 9 -8 79 -11 230 -9 l216 3 -230
230 -230 230 0 -221z"/>
</g>
</svg>
