<svg width="44" height="44" viewBox="0 0 44 44" fill="none" xmlns="http://www.w3.org/2000/svg">
<rect width="44" height="44" rx="10" fill="#2E1E91"/>
<path d="M25.2495 14.25H27.7495C28.578 14.25 29.2495 14.9215 29.2495 15.75V16M18.7495 14.25H16.2495C15.421 14.25 14.7495 14.9215 14.7495 15.75C14.7495 21.0221 14.7495 23.9779 14.7495 29.25C14.7495 30.0785 15.421 30.75 16.2495 30.75H27.7495C28.578 30.75 29.2495 30.0785 29.2495 29.25V27.3253" stroke="white" stroke-width="2" stroke-miterlimit="10" stroke-linecap="round" stroke-linejoin="round"/>
<path d="M18.4443 19.2363H24.1175M18.4443 22.5004H20.0559H21.2847" stroke="white" stroke-width="1.6" stroke-linecap="round" stroke-linejoin="round"/>
<path d="M30.3059 18.2448C30.5678 17.9628 30.9296 17.7978 31.3118 17.7861C31.694 17.7744 32.0652 17.9169 32.3438 18.1823C32.6225 18.4477 32.7857 18.8143 32.7975 19.2013C32.8094 19.5883 32.669 19.9642 32.4071 20.2462L26.1542 26.9796L23.4581 27.7509L24.053 24.9783L30.3059 18.2448Z" stroke="white" stroke-width="2" stroke-linecap="round" stroke-linejoin="round"/>
<path d="M23.7505 12.25C23.3645 12.25 20.525 12.25 20.2505 12.25C19.422 12.25 18.7505 12.9215 18.7505 13.75C18.7505 14.5785 19.422 15.25 20.2505 15.25C20.525 15.25 23.3645 15.25 23.7505 15.25C24.579 15.25 25.2505 14.5785 25.2505 13.75C25.2505 12.9215 24.579 12.25 23.7505 12.25Z" stroke="white" stroke-width="2" stroke-miterlimit="10" stroke-linecap="round" stroke-linejoin="round"/>
</svg>
