<svg width="45" height="44" viewBox="0 0 45 44" fill="none" xmlns="http://www.w3.org/2000/svg">
<rect x="0.666504" width="44" height="44" rx="10" fill="#ED1A56"/>
<path d="M20.8677 21.25C23.2149 21.25 25.1177 19.3472 25.1177 17C25.1177 14.6528 23.2149 12.75 20.8677 12.75C18.5205 12.75 16.6177 14.6528 16.6177 17C16.6177 19.3472 18.5205 21.25 20.8677 21.25Z" stroke="white" stroke-width="2" stroke-miterlimit="5"/>
<path d="M28.1177 26.75C28.1177 32.75 13.6177 32.75 13.6177 26.75V25.9895C13.6177 25.305 14.1727 24.75 14.8572 24.75H26.8787C27.5632 24.75 28.1182 25.305 28.1182 25.9895V26.75H28.1177Z" stroke="white" stroke-width="2" stroke-miterlimit="10"/>
<path d="M31.8755 16L31.8755 20" stroke="white" stroke-width="2" stroke-linecap="round" stroke-linejoin="round"/>
<path d="M31.8755 24L31.8655 24" stroke="white" stroke-width="2" stroke-linecap="round" stroke-linejoin="round"/>
</svg>
