<svg width="45" height="44" viewBox="0 0 45 44" fill="none" xmlns="http://www.w3.org/2000/svg">
<rect x="0.5" width="44" height="44" rx="22" fill="#2E1E91"/>
<path d="M21.887 11.1653V17.6809H28.4025" stroke="white" stroke-width="2" stroke-linecap="round" stroke-linejoin="round"/>
<path d="M16.6545 25.5566L19.3694 22.8418L22.0842 25.5566L25.342 22.2988" stroke="white" stroke-width="1.5" stroke-linecap="round" stroke-linejoin="round"/>
<circle cx="16.6462" cy="25.5566" r="1.08593" fill="white"/>
<circle cx="19.3367" cy="22.8416" r="1.08593" fill="white"/>
<circle cx="25.342" cy="22.2282" r="1.08593" fill="white"/>
<circle cx="22.0842" cy="25.661" r="1.08593" fill="white"/>
<path d="M28.0001 34.1034C30.5425 34.1034 32.6035 32.0424 32.6035 29.5C32.6035 26.9576 30.5425 24.8966 28.0001 24.8966C25.4577 24.8966 23.3967 26.9576 23.3967 29.5C23.3967 32.0424 25.4577 34.1034 28.0001 34.1034Z" stroke="white" stroke-width="2" stroke-linecap="round" stroke-linejoin="round"/>
<path fill-rule="evenodd" clip-rule="evenodd" d="M15.2971 9.89663C14.5186 9.89663 13.778 10.215 13.2363 10.7721C12.6957 11.3282 12.3967 12.0766 12.3967 12.8513V28.4887C12.3967 29.2634 12.6957 30.0118 13.2363 30.5679C13.778 31.125 14.5186 31.4434 15.2971 31.4434H21.7255C21.5169 30.8139 21.4018 30.1417 21.3969 29.4434H15.2971C15.0675 29.4434 14.8415 29.3498 14.6703 29.1738C14.4982 28.9968 14.3967 28.7508 14.3967 28.4887V12.8513C14.3967 12.5892 14.4982 12.3432 14.6703 12.1662C14.8415 11.9902 15.0675 11.8966 15.2971 11.8966H21.5259L27.5997 18.144V22.9033C27.6982 22.8989 27.7972 22.8966 27.8967 22.8966C28.486 22.8966 29.057 22.975 29.5997 23.122V17.738C29.5997 17.4777 29.4982 17.2276 29.3167 17.0409L22.6654 10.1996C22.4771 10.0059 22.2185 9.89663 21.9484 9.89663H15.2971Z" fill="white"/>
<path d="M27.9983 28.1847V30.1576H29.4041" stroke="white" stroke-width="2" stroke-linecap="round" stroke-linejoin="round"/>
</svg>
