<svg width="44" height="44" viewBox="0 0 44 44" fill="none" xmlns="http://www.w3.org/2000/svg">
<rect width="44" height="44" rx="22" fill="#2E1E91"/>
<path d="M28.25 30.25H15.75C14.6455 30.25 13.75 29.3545 13.75 28.25V15.75C13.75 14.6455 14.6455 13.75 15.75 13.75H28.25C29.3545 13.75 30.25 14.6455 30.25 15.75V28.25C30.25 29.3545 29.3545 30.25 28.25 30.25Z" stroke="white" stroke-width="1.5" stroke-miterlimit="10" stroke-linecap="round" stroke-linejoin="round"/>
<path d="M21.75 17.25V19.75C21.75 21.1305 20.6305 22.25 19.25 22.25C17.8695 22.25 16.75 21.1305 16.75 19.75V17.25" stroke="white" stroke-width="1.5" stroke-miterlimit="10" stroke-linecap="round" stroke-linejoin="round"/>
<path d="M26.75 19.75V23.5C26.75 25.571 25.071 27.25 23 27.25C20.929 27.25 19.25 25.571 19.25 23.5V22.25" stroke="white" stroke-width="1.5" stroke-miterlimit="10" stroke-linecap="round" stroke-linejoin="round"/>
<path d="M17.25 18.5C17.9404 18.5 18.5 17.9404 18.5 17.25C18.5 16.5596 17.9404 16 17.25 16C16.5596 16 16 16.5596 16 17.25C16 17.9404 16.5596 18.5 17.25 18.5Z" fill="white"/>
<path d="M21.25 18.5C21.9404 18.5 22.5 17.9404 22.5 17.25C22.5 16.5596 21.9404 16 21.25 16C20.5596 16 20 16.5596 20 17.25C20 17.9404 20.5596 18.5 21.25 18.5Z" fill="white"/>
<path d="M26.75 21C27.4404 21 28 20.4404 28 19.75C28 19.0596 27.4404 18.5 26.75 18.5C26.0596 18.5 25.5 19.0596 25.5 19.75C25.5 20.4404 26.0596 21 26.75 21Z" fill="white"/>
</svg>
