<svg width="44" height="44" viewBox="0 0 44 44" fill="none" xmlns="http://www.w3.org/2000/svg">
<rect width="44" height="44" rx="22" fill="#EFE8FF"/>
<path d="M18.5 20.25C20.8472 20.25 22.75 18.3472 22.75 16C22.75 13.6528 20.8472 11.75 18.5 11.75C16.1528 11.75 14.25 13.6528 14.25 16C14.25 18.3472 16.1528 20.25 18.5 20.25Z" stroke="#2E1E91" stroke-width="1.5" stroke-miterlimit="5"/>
<path d="M20.4697 29.101C19.6628 29.368 18.7688 29.5 17.8952 29.5C15.2612 29.5 12.4266 28.3265 12.4266 25.75V24.9895C12.4266 24.724 12.584 24.5 12.7699 24.5H20.9738C21.2472 23.9485 21.5939 23.4445 22 23H12.7699C11.7941 23 11 23.8925 11 24.9895V25.75C11 27.3905 11.8065 28.816 13.2711 29.7635C14.5032 30.561 16.1453 31 17.8952 31C18.9366 31 20.0028 30.838 20.9762 30.505C20.7574 30.0645 20.5886 29.5935 20.4697 29.101Z" fill="#2E1E91"/>
<path d="M32.5 25.8805C32.2382 24.9578 31.7498 24.1311 31.1012 23.4615L30.4915 23.6921C30.0754 23.8496 29.6104 23.8116 29.2254 23.5892C28.84 23.3667 28.575 22.9831 28.5032 22.5442L28.397 21.8947C27.9493 21.7816 27.482 21.7212 27 21.7212C26.5171 21.7212 26.0507 21.7876 25.6026 21.9002L25.4973 22.5437C25.4254 22.9827 25.1604 23.3662 24.775 23.5887C24.3896 23.8112 23.925 23.8491 23.5089 23.6917L22.8965 23.4605C22.2465 24.1302 21.7618 24.9578 21.5 25.8805L22.0062 26.2948C22.3504 26.5767 22.55 26.9978 22.55 27.4427C22.55 27.8876 22.3504 28.3092 22.0062 28.5907L21.5 29.0049C21.7618 29.9277 22.247 30.7553 22.8965 31.4249L23.5085 31.1933C23.9246 31.0359 24.3896 31.0738 24.7746 31.2963C25.1595 31.5188 25.425 31.9023 25.4968 32.3413L25.6021 32.9848C26.0507 33.0979 26.5171 33.1643 27 33.1643C27.4829 33.1643 27.9493 33.0979 28.3974 32.9853L28.5027 32.3417C28.5746 31.9028 28.8396 31.5192 29.225 31.2968C29.6104 31.0743 30.075 31.0363 30.4911 31.1938L31.103 31.4254C31.753 30.7557 32.2377 29.9282 32.4995 29.0054L31.9933 28.5912C31.6491 28.3092 31.4495 27.8881 31.4495 27.4432C31.4495 26.9983 31.6491 26.5767 31.9933 26.2952L32.5 25.8805Z" stroke="#2E1E91" stroke-miterlimit="10" stroke-linejoin="round"/>
<circle cx="26.9502" cy="27.1926" r="2.25" stroke="#2E1E91" stroke-width="0.75"/>
</svg>
