<svg width="44" height="44" viewBox="0 0 44 44" fill="none" xmlns="http://www.w3.org/2000/svg">
<rect width="44" height="44" rx="22" fill="#EFE8FF"/>
<path d="M19.5 25C20.0523 25 20.5 24.5523 20.5 24C20.5 23.4477 20.0523 23 19.5 23C18.9477 23 18.5 23.4477 18.5 24C18.5 24.5523 18.9477 25 19.5 25Z" fill="#2E1E91"/>
<path d="M24.5 25C25.0523 25 25.5 24.5523 25.5 24C25.5 23.4477 25.0523 23 24.5 23C23.9477 23 23.5 23.4477 23.5 24C23.5 24.5523 23.9477 25 24.5 25Z" fill="#2E1E91"/>
<path d="M27.75 11.75H16.25C15.6975 11.75 15.25 12.1975 15.25 12.75V20.25H28.75V12.75C28.75 12.1975 28.3025 11.75 27.75 11.75Z" stroke="#2E1E91" stroke-width="1.33" stroke-miterlimit="5" stroke-linecap="round" stroke-linejoin="round"/>
<path d="M21.75 18.5C21.336 18.5 21 18.164 21 17.75V14.75C21 14.336 21.336 14 21.75 14C22.164 14 22.5 14.336 22.5 14.75V17.75C22.5 18.164 22.164 18.5 21.75 18.5Z" fill="#2E1E91"/>
<path d="M24 16.25C24 16.664 23.664 17 23.25 17H20.25C19.836 17 19.5 16.664 19.5 16.25C19.5 15.836 19.836 15.5 20.25 15.5H23.25C23.664 15.5 24 15.836 24 16.25Z" fill="#2E1E91"/>
<path d="M28.75 20V22.4395C29.338 22.719 29.75 23.305 29.75 24C29.75 24.9665 28.9665 25.75 28 25.75C27.9895 25.75 27.98 25.747 27.9695 25.747C27.179 29.514 24.8055 32.25 22 32.25C19.1945 32.25 16.821 29.514 16.0305 25.747C16.02 25.747 16.0105 25.75 16 25.75C15.0335 25.75 14.25 24.9665 14.25 24C14.25 23.3035 14.6605 22.711 15.25 22.4315V20" stroke="#2E1E91" stroke-width="1.33" stroke-miterlimit="5" stroke-linecap="round" stroke-linejoin="round"/>
</svg>
