<svg width="44" height="44" viewBox="0 0 44 44" fill="none" xmlns="http://www.w3.org/2000/svg">
<rect width="44" height="44" rx="22" fill="#2E1E91"/>
<path d="M29.75 30.25H14.25C13.6975 30.25 13.25 29.8025 13.25 29.25V19.75C13.25 19.1975 13.6975 18.75 14.25 18.75H29.75C30.3025 18.75 30.75 19.1975 30.75 19.75V29.25C30.75 29.8025 30.3025 30.25 29.75 30.25Z" stroke="white" stroke-width="1.596" stroke-miterlimit="10" stroke-linecap="round" stroke-linejoin="round"/>
<path d="M14.75 16.249H29.25" stroke="white" stroke-width="1.596" stroke-miterlimit="10" stroke-linecap="round" stroke-linejoin="round"/>
<path d="M27.75 13.75H16.25" stroke="white" stroke-width="1.596" stroke-miterlimit="10" stroke-linecap="round" stroke-linejoin="round"/>
<path d="M20.375 27.499C20.2225 27.499 20.0705 27.459 19.9345 27.38C19.6655 27.2235 19.5 26.9355 19.5 26.624V22.374C19.5 22.0625 19.6655 21.7745 19.9345 21.618C20.2025 21.4615 20.535 21.459 20.806 21.613L24.556 23.738C24.8305 23.893 25 24.184 25 24.499C25 24.814 24.8305 25.105 24.556 25.26L20.806 27.385C20.6725 27.461 20.524 27.499 20.375 27.499Z" fill="white"/>
</svg>
