<svg width="22" height="23" viewBox="0 0 22 23" fill="none" xmlns="http://www.w3.org/2000/svg">
<path d="M18.104 19.0622H3.89567C3.38921 19.0622 2.979 18.652 2.979 18.1455V9.43717C2.979 8.93072 3.38921 8.52051 3.89567 8.52051H18.104C18.6105 8.52051 19.0207 8.93072 19.0207 9.43717V18.1455C19.0207 18.652 18.6105 19.0622 18.104 19.0622Z" stroke="white" stroke-width="1.463" stroke-miterlimit="10" stroke-linecap="round" stroke-linejoin="round"/>
<path d="M4.354 6.22852H17.6457" stroke="white" stroke-width="1.463" stroke-miterlimit="10" stroke-linecap="round" stroke-linejoin="round"/>
<path d="M16.2707 3.9375H5.729" stroke="white" stroke-width="1.463" stroke-miterlimit="10" stroke-linecap="round" stroke-linejoin="round"/>
<path d="M9.51058 16.541C9.37079 16.541 9.23145 16.5043 9.10679 16.4319C8.8602 16.2884 8.7085 16.0244 8.7085 15.7389V11.8431C8.7085 11.5575 8.8602 11.2935 9.10679 11.1501C9.35245 11.0066 9.65725 11.0043 9.90566 11.1455L13.3432 13.0934C13.5948 13.2355 13.7502 13.5022 13.7502 13.791C13.7502 14.0797 13.5948 14.3465 13.3432 14.4886L9.90566 16.4365C9.78329 16.5061 9.64716 16.541 9.51058 16.541Z" fill="white"/>
</svg>
