<svg width="44" height="44" viewBox="0 0 44 44" fill="none" xmlns="http://www.w3.org/2000/svg">
<rect width="44" height="44" rx="22" fill="#EFE8FF"/>
<path d="M13.9022 14.4345C12.8912 14.7335 12.0992 15.5415 11.8347 16.5435C11.1687 19.0705 11.9192 22.201 14.0667 25.8475C16.2112 29.489 18.5977 31.691 21.1587 32.392C22.1817 32.672 23.2972 32.401 24.0682 31.6845L24.9682 30.849C25.7022 30.1675 25.8097 29.0475 25.2182 28.243L23.9177 26.4765C23.4097 25.7865 22.5117 25.4895 21.6812 25.739L19.6397 26.3505C19.1072 26.506 18.6447 26.103 18.4697 25.9515C18.0467 25.584 17.5827 24.9725 17.0892 24.1355C16.0312 22.339 16.1082 21.6645 16.1332 21.443C16.1602 21.206 16.2727 20.986 16.4512 20.8235L17.9687 19.4365C18.6037 18.856 18.7907 17.9445 18.4347 17.1685L17.5192 15.172C17.1032 14.2645 16.0552 13.7975 15.0857 14.084L13.9022 14.4345Z" stroke="#2E1E91" stroke-width="1.33" stroke-miterlimit="10"/>
<path d="M27.0996 13C24.6144 13 22.5996 15.0147 22.5996 17.4997C22.5996 18.2941 22.8073 19.0394 23.1688 19.6873L22.6091 21.6911C22.558 21.8735 22.7261 22.0418 22.9088 21.9907L24.9136 21.4313C25.5611 21.792 26.3059 21.9995 27.0996 21.9995C29.5848 21.9995 31.5996 19.9848 31.5996 17.4997C31.5996 15.0147 29.5848 13 27.0996 13Z" stroke="#2E1E91" stroke-width="1.33" stroke-miterlimit="10" stroke-linejoin="round"/>
</svg>
